HIERARCHY
ROOT hip
{
  OFFSET 43.8057 46.2359 96.0877
  CHANNELS 6 Xposition Yposition Zposition Zrotation Xrotation Yrotation
  JOINT abdomen
  {
    OFFSET 0 6.09653 0.699602
    CHANNELS 3 Zrotation Xrotation Yrotation
    JOINT chest
    {
      OFFSET 0 2.49857 -0.699602
      CHANNELS 3 Zrotation Xrotation Yrotation
      JOINT lCollar
      {
        OFFSET 1.49915 11.2936 -1.69903
        CHANNELS 3 Zrotation Xrotation Yrotation
        JOINT lShldr
        {
          OFFSET 4.89721 -0.299833 0.799545
          CHANNELS 3 Zrotation Xrotation Yrotation
          JOINT lForeArm
          {
            OFFSET 12.4216 -1.19922 0.931564
            CHANNELS 3 Zrotation Xrotation Yrotation
            JOINT lHand
            {
              OFFSET 9.86568 0.0998482 3.66582
              CHANNELS 3 Zrotation Xrotation Yrotation
              JOINT lThumb1
              {
                OFFSET 0.399772 -0.399773 1.19932
                CHANNELS 3 Zrotation Xrotation Yrotation
                JOINT lThumb2
                {
                  OFFSET 0.99813 0 1.47145
                  CHANNELS 3 Zrotation Xrotation Yrotation
                  End Site
                  {
                    OFFSET 0.97784 -0.27884 0.829828
                  }
                }
              }
              JOINT lPinky1
              {
                OFFSET 3.29812 0.0999421 -0.399772
                CHANNELS 3 Zrotation Xrotation Yrotation
                JOINT lPinky2
                {
                  OFFSET 0.899488 -0.0999427 0
                  CHANNELS 3 Zrotation Xrotation Yrotation
                  End Site
                  {
                    OFFSET 0.999427 -0.0999418 0
                  }
                }
              }
              JOINT lIndex1
              {
                OFFSET 2.69846 0.399775 2.09881
                CHANNELS 3 Zrotation Xrotation Yrotation
                JOINT lIndex2
                {
                  OFFSET 1.33823 -0.200884 0.6843
                  CHANNELS 3 Zrotation Xrotation Yrotation
                  End Site
                  {
                    OFFSET 0.760567 0.00099574 0.415074
                  }
                }
              }
              JOINT lMid1
              {
                OFFSET 2.99829 0.499714 1.09937
                CHANNELS 3 Zrotation Xrotation Yrotation
                JOINT lMid2
                {
                  OFFSET 1.45827 -0.0999388 0.600149
                  CHANNELS 3 Zrotation Xrotation Yrotation
                  End Site
                  {
                    OFFSET 1.04031 -0.0999473 0.399282
                  }
                }
              }
              JOINT lRing1
              {
                OFFSET 3.39806 0.399773 0.299829
                CHANNELS 3 Zrotation Xrotation Yrotation
                JOINT lRing2
                {
                  OFFSET 1.29926 -0.199886 0.399772
                  CHANNELS 3 Zrotation Xrotation Yrotation
                  End Site
                  {
                    OFFSET 0.899489 -0.0999425 0.199886
                  }
                }
              }
            }
          }
        }
      }
      JOINT rCollar
      {
        OFFSET -1.49915 11.2936 -1.69903
        CHANNELS 3 Zrotation Xrotation Yrotation
        JOINT rShldr
        {
          OFFSET -4.89721 -0.299829 0.799545
          CHANNELS 3 Zrotation Xrotation Yrotation
          JOINT rForeArm
          {
            OFFSET -12.4216 -1.19922 0.931564
            CHANNELS 3 Zrotation Xrotation Yrotation
            JOINT rHand
            {
              OFFSET -9.86568 0.0998477 3.66582
              CHANNELS 3 Zrotation Xrotation Yrotation
              JOINT rPinky1
              {
                OFFSET -3.29812 0.0999423 -0.399772
                CHANNELS 3 Zrotation Xrotation Yrotation
                JOINT rPinky2
                {
                  OFFSET -0.899492 -0.0999405 0
                  CHANNELS 3 Zrotation Xrotation Yrotation
                  End Site
                  {
                    OFFSET -0.999429 -0.0999421 0
                  }
                }
              }
              JOINT rMid1
              {
                OFFSET -2.99829 0.499717 1.09937
                CHANNELS 3 Zrotation Xrotation Yrotation
                JOINT rMid2
                {
                  OFFSET -1.45827 -0.0999391 0.600149
                  CHANNELS 3 Zrotation Xrotation Yrotation
                  End Site
                  {
                    OFFSET -1.0403 -0.0999474 0.399282
                  }
                }
              }
              JOINT rIndex1
              {
                OFFSET -2.69847 0.399775 2.09881
                CHANNELS 3 Zrotation Xrotation Yrotation
                JOINT rIndex2
                {
                  OFFSET -1.33823 -0.200883 0.6843
                  CHANNELS 3 Zrotation Xrotation Yrotation
                  End Site
                  {
                    OFFSET -0.760569 0.00099747 0.415074
                  }
                }
              }
              JOINT rRing1
              {
                OFFSET -3.39807 0.399775 0.299829
                CHANNELS 3 Zrotation Xrotation Yrotation
                JOINT rRing2
                {
                  OFFSET -1.29926 -0.199888 0.399772
                  CHANNELS 3 Zrotation Xrotation Yrotation
                  End Site
                  {
                    OFFSET -0.899487 -0.0999402 0.199886
                  }
                }
              }
              JOINT rThumb1
              {
                OFFSET -0.399773 -0.39977 1.19932
                CHANNELS 3 Zrotation Xrotation Yrotation
                JOINT rThumb2
                {
                  OFFSET -0.998132 0 1.47145
                  CHANNELS 3 Zrotation Xrotation Yrotation
                  End Site
                  {
                    OFFSET -0.977841 -0.278837 0.829828
                  }
                }
              }
            }
          }
        }
      }
      JOINT neck
      {
        OFFSET 0 12.4929 -0.499715
        CHANNELS 3 Zrotation Xrotation Yrotation
        JOINT head
        {
          OFFSET 0 3.59795 0.299829
          CHANNELS 3 Zrotation Xrotation Yrotation
          JOINT rightEye
          {
            OFFSET -1.19932 3.69789 3.19818
            CHANNELS 3 Zrotation Xrotation Yrotation
            End Site
            {
              OFFSET 0 0 0
            }
          }
          JOINT leftEye
          {
            OFFSET 1.19932 3.69789 3.19818
            CHANNELS 3 Zrotation Xrotation Yrotation
            End Site
            {
              OFFSET 0 0 0
            }
          }
        }
      }
    }
  }
  JOINT rButtock
  {
    OFFSET -4.19761 -0.599656 -0.299829
    CHANNELS 3 Zrotation Xrotation Yrotation
    JOINT rThigh
    {
      OFFSET 0 -1.49915 0
      CHANNELS 3 Zrotation Xrotation Yrotation
      JOINT rShin
      {
        OFFSET 0.699602 -17.6899 -1.09938
        CHANNELS 3 Zrotation Xrotation Yrotation
        JOINT rFoot
        {
          OFFSET -0.699602 -18.0897 -0.699602
          CHANNELS 3 Zrotation Xrotation Yrotation
          End Site
          {
            OFFSET 0 -2.09881 5.59681
          }
        }
      }
    }
  }
  JOINT lButtock
  {
    OFFSET 4.19761 -0.599656 -0.299829
    CHANNELS 3 Zrotation Xrotation Yrotation
    JOINT lThigh
    {
      OFFSET 0 -1.49914 0
      CHANNELS 3 Zrotation Xrotation Yrotation
      JOINT lShin
      {
        OFFSET -0.699602 -17.6899 -1.09937
        CHANNELS 3 Zrotation Xrotation Yrotation
        JOINT lFoot
        {
          OFFSET 0.699602 -18.0897 -0.699602
          CHANNELS 3 Zrotation Xrotation Yrotation
          End Site
          {
            OFFSET 0 -2.0988 5.59681
          }
        }
      }
    }
  }
}
MOTION
Frames:	4
Frame Time:	0.0333333
1.84039 45.7171 -135.086 -9.59977 11.2349 -52.8617 -0.00975517 -0.00975351 -0.00975351 -1.17228 -9.49485 -2.45205 7.31231 -1.12655 -12.6221 -119.03 68.7235 76.9906 -64.7108 34.2547 -87.6169 27.3911 -12.8309 -9.16892 4.3356e-005 -0.045622 -0.00980864 9.41156 -7.94154 0.625637 -0.0098645 -0.011007 -0.00833234 -0.629908 -0.00995831 0.00100883 -0.0141103 -0.0100864 -0.00835606 -8.61843 -0.0232171 1.79819 -0.0134437 -0.00969483 -0.00912444 0.204765 0.414792 -1.45043 -0.0118469 -0.0109711 -0.00814071 -2.42851 -0.502382 -4.43241 12.8235 0.746779 0.352441 101.643 56.6709 -62.371 37.3936 38.5841 113.973 -29.9539 -8.96298 -8.34118 -0.00959181 -0.0083053 -0.0110358 0.629425 -0.00953167 -0.000952463 -0.00609249 -0.00836212 -0.0103539 -0.219775 0.404223 1.44943 -0.00535639 -0.00716099 -0.0109534 8.61177 -0.00190224 -1.79828 -0.00762482 -0.00786988 -0.0111471 2.42705 -0.497593 4.4329 5.92621e-005 -0.0456283 -0.00979178 -9.39785 -7.91692 -0.663798 14.9769 9.76417 -0.391286 10.6541 -16.6215 25.8233 0 0 0 0 0 0 -0.00975517 -0.00969887 -0.00983547 19.7024 -1.968 -13.058 0.14094 6.60758 3.39991 -3.96157 16.7308 0.0837798 -0.00975517 -0.00983547 -0.00969887 33.0899 -16.7295 44.2512 -0.37582 9.58469 -8.32181 8.32012 41.8008 -1.78134 
1.86297 45.7158 -135.029 -9.3598 11.2662 -52.7152 -0.00975517 -0.00975351 -0.00975351 -1.17777 -9.54892 -2.38656 7.1173 -1.08638 -12.5746 -118.5 68.5881 76.626 -64.7027 34.3143 -87.6493 27.5712 -12.8057 -8.77076 4.3356e-005 -0.045622 -0.00980864 9.41156 -7.94154 0.625637 -0.0098645 -0.011007 -0.00833234 -0.629908 -0.00995831 0.00100883 -0.0141103 -0.0100864 -0.00835606 -8.61846 -0.0232171 1.79819 -0.0134437 -0.00969483 -0.00912444 0.204765 0.414792 -1.45043 -0.0118469 -0.0109711 -0.00814071 -2.42851 -0.502382 -4.43241 12.9068 0.787459 0.615309 100.985 56.3711 -62.1477 36.6414 37.7346 114.253 -27.4767 -8.14716 -8.56276 -0.00959181 -0.0083053 -0.0110358 0.629425 -0.00953167 -0.000952463 -0.00609249 -0.00836212 -0.0103539 -0.219775 0.404223 1.44943 -0.00535639 -0.00716099 -0.0109534 8.61178 -0.00190224 -1.79828 -0.00762482 -0.00786988 -0.0111471 2.42705 -0.497593 4.4329 5.92621e-005 -0.0456283 -0.00979178 -9.39785 -7.91692 -0.663798 14.9821 9.79951 -0.468584 10.5115 -16.8693 25.7263 0 0 0 0 0 0 -0.00975517 -0.00969887 -0.00983547 19.4928 -2.18894 -13.5105 0.132178 6.62884 3.17804 -3.80919 16.5014 0.0569119 -0.00975517 -0.00983547 -0.00969887 32.8117 -17.0412 44.5459 -0.356013 9.55798 -7.78222 8.76525 41.8139 -1.96653 
1.90166 45.7207 -134.934 -9.12623 11.2451 -52.431 -0.00975517 -0.00975351 -0.00975351 -1.01599 -9.40902 -2.32651 7.02875 -1.06109 -12.4094 -117.318 68.5001 75.3069 -65.0267 34.2697 -87.4106 27.4647 -12.5871 -8.1742 4.3356e-005 -0.045622 -0.00980864 9.41156 -7.94154 0.625637 -0.0098645 -0.011007 -0.00833234 -0.629908 -0.00995831 0.00100883 -0.0141103 -0.0100864 -0.00835606 -8.61849 -0.0232171 1.79819 -0.0134437 -0.00969483 -0.00912444 0.204765 0.414792 -1.45043 -0.0118469 -0.0109711 -0.00814071 -2.42851 -0.502382 -4.43241 12.7116 0.813837 0.961962 99.9228 56.2461 -61.4872 36.1949 36.9888 114.252 -24.9496 -7.3794 -8.58657 -0.00959181 -0.0083053 -0.0110358 0.629425 -0.00953167 -0.000952463 -0.00609249 -0.00836212 -0.0103539 -0.219775 0.404223 1.44943 -0.00535639 -0.00716099 -0.0109534 8.61179 -0.00190224 -1.79828 -0.00762482 -0.00786988 -0.0111471 2.42705 -0.497593 4.4329 5.92621e-005 -0.0456283 -0.00979178 -9.39785 -7.91692 -0.663798 14.8241 9.64976 -0.461657 10.1794 -17.3997 25.6487 0 0 0 0 0 0 -0.00975517 -0.00969887 -0.00983547 19.214 -2.43039 -14.0065 0.114435 6.61656 2.73765 -3.64353 16.5617 0.0262409 -0.00975517 -0.00983547 -0.00969887 32.3094 -17.4895 44.7123 -0.348096 9.52495 -7.57247 9.24291 41.8341 -2.16573 
1.9491 45.7181 -134.791 -9.13841 11.142 -52.0065 -0.00975517 -0.00975351 -0.00975351 -0.641177 -9.08447 -2.2009 6.85216 -1.0228 -12.317 -116.145 68.1055 73.934 -64.8332 33.9634 -87.4031 27.0272 -11.9936 -6.76358 4.3356e-005 -0.045622 -0.00980864 9.41156 -7.94154 0.625637 -0.0098645 -0.011007 -0.00833234 -0.629908 -0.00995831 0.00100883 -0.0141103 -0.0100864 -0.00835606 -8.61852 -0.0232171 1.79819 -0.0134437 -0.00969483 -0.00912444 0.204765 0.414792 -1.45043 -0.0118469 -0.0109711 -0.00814071 -2.42851 -0.502382 -4.43241 12.3543 0.81876 1.26812 98.8436 56.2337 -61.1007 36.1801 36.4111 113.87 -21.9375 -6.5801 -8.08381 -0.00959181 -0.0083053 -0.0110358 0.629425 -0.00953167 -0.000952463 -0.00609249 -0.00836212 -0.0103539 -0.219775 0.404223 1.44943 -0.00535639 -0.00716099 -0.0109534 8.6118 -0.00190224 -1.79828 -0.00762482 -0.00786988 -0.0111471 2.42705 -0.497593 4.4329 5.92621e-005 -0.0456283 -0.00979178 -9.39785 -7.91692 -0.663798 14.6023 9.30392 -0.462813 9.63651 -18.0468 25.4808 0 0 0 0 0 0 -0.00975517 -0.00969887 -0.00983547 18.9651 -2.30324 -14.5248 0.14715 6.67236 3.54849 -3.53628 16.7267 0.00529133 -0.00975517 -0.00983547 -0.00969887 31.7112 -17.8354 44.5291 -0.304373 9.46663 -6.40974 10.0822 41.9523 -2.52086 
